<svg xmlns="http://www.w3.org/2000/svg" xmlns:xlink="http://www.w3.org/1999/xlink" version="1.1" width="256" height="256" viewBox="0 0 256 256" xml:space="preserve">
<g style="stroke: none; stroke-width: 0; stroke-dasharray: none; stroke-linecap: butt; stroke-linejoin: miter; stroke-miterlimit: 10; fill: none; fill-rule: nonzero; opacity: 1;" transform="translate(1.4065934065934016 1.4065934065934016) scale(2.81 2.81)">
	<path d="M 74.886 68.02 c -4.602 0 -8.345 -3.743 -8.345 -8.345 c 0 -4.601 3.743 -8.344 8.345 -8.344 s 8.345 3.743 8.345 8.344 C 83.23 64.276 79.487 68.02 74.886 68.02 z M 74.886 53.331 c -3.498 0 -6.345 2.846 -6.345 6.344 s 2.847 6.345 6.345 6.345 s 6.345 -2.847 6.345 -6.345 S 78.384 53.331 74.886 53.331 z" style="stroke: none; stroke-width: 1; stroke-dasharray: none; stroke-linecap: butt; stroke-linejoin: miter; stroke-miterlimit: 10; fill: rgb(0,0,0); fill-rule: nonzero; opacity: 1;" transform=" matrix(1 0 0 1 0 0) " stroke-linecap="round"/>
	<path d="M 21.567 68.02 c -4.601 0 -8.344 -3.743 -8.344 -8.345 c 0 -4.601 3.743 -8.344 8.344 -8.344 s 8.345 3.743 8.345 8.344 C 29.912 64.276 26.168 68.02 21.567 68.02 z M 21.567 53.331 c -3.498 0 -6.344 2.846 -6.344 6.344 s 2.846 6.345 6.344 6.345 c 3.499 0 6.345 -2.847 6.345 -6.345 S 25.065 53.331 21.567 53.331 z" style="stroke: none; stroke-width: 1; stroke-dasharray: none; stroke-linecap: butt; stroke-linejoin: miter; stroke-miterlimit: 10; fill: rgb(0,0,0); fill-rule: nonzero; opacity: 1;" transform=" matrix(1 0 0 1 0 0) " stroke-linecap="round"/>
	<path d="M 5.515 60.703 C 2.472 60.703 0 58.23 0 55.191 V 27.148 c 0 -2.849 2.318 -5.167 5.167 -5.167 h 31.266 c 8.775 0 17.026 3.871 22.635 10.62 l 5.583 6.717 c 0.353 0.425 0.294 1.055 -0.131 1.408 c -0.425 0.354 -1.055 0.294 -1.408 -0.13 l -5.582 -6.717 c -5.229 -6.29 -12.918 -9.898 -21.097 -9.898 H 5.167 C 3.421 23.98 2 25.401 2 27.148 v 28.043 c 0 1.937 1.575 3.512 3.511 3.512 l 8.708 -0.028 c 0.001 0 0.002 0 0.003 0 c 0.551 0 0.998 0.445 1 0.997 s -0.444 1.001 -0.997 1.003 L 5.515 60.703 z" style="stroke: none; stroke-width: 1; stroke-dasharray: none; stroke-linecap: butt; stroke-linejoin: miter; stroke-miterlimit: 10; fill: rgb(0,0,0); fill-rule: nonzero; opacity: 1;" transform=" matrix(1 0 0 1 0 0) " stroke-linecap="round"/>
	<path d="M 86.403 60.703 l -4.185 -0.028 c -0.553 -0.007 -0.995 -0.46 -0.988 -1.012 c 0.007 -0.548 0.453 -0.988 1 -0.988 c 0.004 0 0.008 0 0.012 0 l 4.161 0.028 c 0.881 0 1.597 -0.716 1.597 -1.597 c 0 -6.316 -4.516 -11.694 -10.737 -12.785 l -13.504 -3.365 H 44.092 c -2.949 0 -5.348 -2.399 -5.348 -5.348 V 23.176 c 0 -0.552 0.448 -1 1 -1 s 1 0.448 1 1 v 12.433 c 0 1.846 1.502 3.348 3.348 3.348 h 19.79 c 0.082 0 0.163 0.01 0.242 0.03 l 13.554 3.38 C 84.788 43.611 90 49.816 90 57.106 C 90 59.09 88.387 60.703 86.403 60.703 z" style="stroke: none; stroke-width: 1; stroke-dasharray: none; stroke-linecap: butt; stroke-linejoin: miter; stroke-miterlimit: 10; fill: rgb(0,0,0); fill-rule: nonzero; opacity: 1;" transform=" matrix(1 0 0 1 0 0) " stroke-linecap="round"/>
	<path d="M 67.541 60.675 H 28.912 c -0.552 0 -1 -0.447 -1 -1 s 0.448 -1 1 -1 h 38.629 c 0.553 0 1 0.447 1 1 S 68.094 60.675 67.541 60.675 z" style="stroke: none; stroke-width: 1; stroke-dasharray: none; stroke-linecap: butt; stroke-linejoin: miter; stroke-miterlimit: 10; fill: rgb(0,0,0); fill-rule: nonzero; opacity: 1;" transform=" matrix(1 0 0 1 0 0) " stroke-linecap="round"/>
	<path d="M 74.89 60.68 c -0.14 0 -0.27 -0.03 -0.39 -0.08 s -0.23 -0.12 -0.32 -0.22 c -0.189 -0.19 -0.29 -0.44 -0.29 -0.7 c 0 -0.27 0.101 -0.53 0.29 -0.71 c 0.37 -0.38 1.04 -0.37 1.41 0 c 0.05 0.04 0.09 0.09 0.13 0.15 c 0.03 0.05 0.061 0.109 0.09 0.17 c 0.021 0.06 0.04 0.13 0.061 0.189 c 0.01 0.061 0.02 0.13 0.02 0.2 c 0 0.26 -0.109 0.51 -0.3 0.7 c -0.09 0.1 -0.2 0.17 -0.32 0.22 S 75.02 60.68 74.89 60.68 z" style="stroke: none; stroke-width: 1; stroke-dasharray: none; stroke-linecap: butt; stroke-linejoin: miter; stroke-miterlimit: 10; fill: rgb(0,0,0); fill-rule: nonzero; opacity: 1;" transform=" matrix(1 0 0 1 0 0) " stroke-linecap="round"/>
	<path d="M 21.57 60.68 c -0.27 0 -0.52 -0.11 -0.71 -0.3 c -0.19 -0.19 -0.29 -0.44 -0.29 -0.7 c 0 -0.14 0.02 -0.26 0.07 -0.39 c 0.05 -0.12 0.13 -0.23 0.22 -0.32 c 0.37 -0.37 1.04 -0.37 1.41 0 c 0.19 0.18 0.3 0.44 0.3 0.71 c 0 0.26 -0.11 0.51 -0.3 0.7 C 22.08 60.569 21.83 60.68 21.57 60.68 z" style="stroke: none; stroke-width: 1; stroke-dasharray: none; stroke-linecap: butt; stroke-linejoin: miter; stroke-miterlimit: 10; fill: rgb(0,0,0); fill-rule: nonzero; opacity: 1;" transform=" matrix(1 0 0 1 0 0) " stroke-linecap="round"/>
</g>
</svg>